<?xml version="1.0" encoding="UTF-8" standalone="no"?>
<!-- Created with Inkscape (http://www.inkscape.org/) -->

<svg
   width="102.81647mm"
   height="102.93119mm"
   viewBox="0 0 102.81647 102.93119"
   version="1.1"
   id="svg5"
   xml:space="preserve"
   inkscape:version="1.2.2 (732a01da63, 2022-12-09)"
   sodipodi:docname="Logo1.svg"
   inkscape:export-filename="..\SitioAbarcar\Tonaris - copia\Logo.svg"
   inkscape:export-xdpi="96"
   inkscape:export-ydpi="96"
   xmlns:inkscape="http://www.inkscape.org/namespaces/inkscape"
   xmlns:sodipodi="http://sodipodi.sourceforge.net/DTD/sodipodi-0.dtd"
   xmlns="http://www.w3.org/2000/svg"
   xmlns:svg="http://www.w3.org/2000/svg"><sodipodi:namedview
     id="namedview7"
     pagecolor="#ffffff"
     bordercolor="#000000"
     borderopacity="0.25"
     inkscape:showpageshadow="2"
     inkscape:pageopacity="0.0"
     inkscape:pagecheckerboard="0"
     inkscape:deskcolor="#d1d1d1"
     inkscape:document-units="mm"
     showgrid="false"
     inkscape:zoom="1.0544998"
     inkscape:cx="285.44339"
     inkscape:cy="497.86638"
     inkscape:window-width="1920"
     inkscape:window-height="1017"
     inkscape:window-x="-8"
     inkscape:window-y="-8"
     inkscape:window-maximized="1"
     inkscape:current-layer="svg5" /><defs
     id="defs2" /><g
     inkscape:label="Capa 1"
     inkscape:groupmode="layer"
     id="layer1"
     style="display:none"
     sodipodi:insensitive="true"
     transform="translate(-54.057683,-54.581164)"><g
       id="g558"
       inkscape:label="Logo"
       sodipodi:insensitive="true"
       style="display:inline"><path
         style="fill:#000000;stroke-width:0.264583"
         d="m 54.057933,157.51226 c 51.309797,-103.037145 0.0096,-0.3067 51.315337,-102.931167 51.34401,102.904997 0.12245,-0.03498 51.50071,102.921527 -12.65406,-5.50119 -26.19701,-11.59759 -37.56587,-16.66875 H 91.683182 c -37.526113,16.38752 -0.05962,-0.19489 -37.625249,16.67839 z"
         id="path547"
         inkscape:label="Externo" /><path
         style="display:inline;fill:#ffffff;stroke-width:0.264583"
         d="m 105.44784,92.30239 c -16.756037,33.92862 -0.009,-0.265157 -16.729492,33.89022 11.833812,0.13538 20.853962,0.0892 33.603682,0.0892 -6.19254,-12.41103 -10.97969,-22.06454 -16.87419,-33.97942 z"
         id="path549"
         inkscape:label="Interno" /></g></g><rect
     style="display:none;fill:#000000;stroke-width:0.264583"
     id="rect1134"
     width="258.43613"
     height="207.2507"
     x="-74.63221"
     y="-26.479374" /><g
     inkscape:label="Capa 1 copia"
     inkscape:groupmode="layer"
     id="g800"
     style="display:inline"
     transform="translate(-54.057683,-54.581164)"><g
       id="g733"
       inkscape:label="Logo"
       style="display:inline"><path
         id="path729"
         style="fill:#ffffff;stroke-width:0.264583"
         inkscape:label="Externo"
         d="m 105.37341,54.581165 c -51.305683,102.624365 -0.006,-0.105858 -51.315728,102.931185 37.565592,-16.87326 0.09954,-0.29107 37.625611,-16.67857 h 27.624667 c 11.36885,5.07116 24.91214,11.16757 37.56619,16.66875 -51.37821,-102.956403 -0.15678,-0.0165 -51.50074,-102.921365 z m 0.0744,37.721211 c 5.89449,11.914864 10.68189,21.568304 16.87442,33.979324 -12.74971,0 -21.77035,0.0465 -33.604151,-0.0889 16.720471,-34.155339 -0.02629,0.0382 16.729731,-33.890434 z" /></g></g></svg>
