<?xml version="1.0" encoding="UTF-8" standalone="no"?>
<!-- Created with Inkscape (http://www.inkscape.org/) -->

<svg
   width="171.82178mm"
   height="16.10704mm"
   viewBox="0 0 171.82178 16.10704"
   version="1.1"
   id="svg5"
   xml:space="preserve"
   inkscape:version="1.2.2 (732a01da63, 2022-12-09)"
   sodipodi:docname="Logo1.svg"
   inkscape:export-filename="..\SitioAbarcar\Tonaris - copia\LogoSoloTriangulo.svg"
   inkscape:export-xdpi="96"
   inkscape:export-ydpi="96"
   xmlns:inkscape="http://www.inkscape.org/namespaces/inkscape"
   xmlns:sodipodi="http://sodipodi.sourceforge.net/DTD/sodipodi-0.dtd"
   xmlns="http://www.w3.org/2000/svg"
   xmlns:svg="http://www.w3.org/2000/svg"><sodipodi:namedview
     id="namedview7"
     pagecolor="#ffffff"
     bordercolor="#000000"
     borderopacity="0.25"
     inkscape:showpageshadow="2"
     inkscape:pageopacity="0.0"
     inkscape:pagecheckerboard="0"
     inkscape:deskcolor="#d1d1d1"
     inkscape:document-units="mm"
     showgrid="false"
     inkscape:zoom="1.0544998"
     inkscape:cx="285.44339"
     inkscape:cy="497.86638"
     inkscape:window-width="1920"
     inkscape:window-height="1017"
     inkscape:window-x="-8"
     inkscape:window-y="-8"
     inkscape:window-maximized="1"
     inkscape:current-layer="svg5" /><defs
     id="defs2"><rect
       x="146.18237"
       y="875.75311"
       width="514.99109"
       height="119.35992"
       id="rect866" /></defs><g
     inkscape:groupmode="layer"
     id="layer4"
     inkscape:label="Capa 3"
     sodipodi:insensitive="true"
     style="display:none"
     transform="translate(-18.043692,-171.97787)"><g
       id="g912"><g
         id="g658"
         inkscape:label="R"><path
           style="fill:#000000;stroke-width:0.264583"
           d="m 169.74294,180.05835 0.0702,-7.60677 h 7.01146 c 5.24123,0 7.33509,0.094 8.29328,0.37213 4.55094,1.32119 4.72956,7.21285 0.27033,8.91585 l -1.19235,0.45536 2.72579,2.7351 2.72579,2.7351 -2.50883,-0.0201 -2.50881,-0.0201 -2.22342,-2.49346 -2.2234,-2.49346 h -3.399 -3.39897 v 2.51354 2.51354 h -1.85613 -1.85616 l 0.0702,-7.60677 z"
           id="path543"
           inkscape:label="R" /><path
           style="fill:#ffffff;stroke-width:0.264583"
           d="m 183.88355,179.30372 c 1.5391,-1.14713 1.43401,-2.81962 -0.23445,-3.73056 -0.74478,-0.40662 -1.54413,-0.47575 -5.50159,-0.47575 h -4.63021 l -0.0781,2.09328 c -0.0429,1.1513 -0.0132,2.26228 0.0661,2.46883 0.11882,0.30962 0.97681,0.36017 4.88804,0.28797 4.33054,-0.0799 4.80896,-0.13604 5.49019,-0.64377 z"
           id="path545"
           inkscape:label="R interior " /></g><g
         id="g653"
         inkscape:label="A"><path
           style="fill:#000000;stroke-width:0.264583"
           d="m 143.29618,186.55235 c 0.61968,-1.05586 3.75999,-6.00322 7.48024,-11.78468 l 1.57422,-2.44641 1.91553,-0.001 1.91552,-10e-4 0.89613,1.38906 c 0.90649,1.40513 6.96814,11.13572 8.07626,12.96458 l 0.60118,0.99219 h -2.0819 -2.08189 l -0.98913,-1.71979 -0.98914,-1.71979 -5.48337,0.0108 -5.48336,0.0108 -0.95872,1.64284 -0.95871,1.64283 -2.04985,0.0778 -2.04985,0.0779 0.66684,-1.13618 z"
           id="path539"
           inkscape:label="A" /><path
           style="fill:#ffffff;stroke-width:0.264583"
           d="m 157.7746,181.69886 c 0,-0.25888 -0.83457,-1.78868 -2.20007,-4.03287 l -1.33492,-2.19392 -1.9316,2.98767 c -1.06238,1.64322 -1.93388,3.07697 -1.93667,3.18611 -0.003,0.10914 1.6618,0.19844 3.69909,0.19844 2.03729,0 3.70417,-0.0654 3.70417,-0.14543 z"
           id="path541"
           inkscape:label="A interior" /></g><g
         id="g648"
         inkscape:label="R"><path
           style="fill:#000000;stroke-width:0.264583"
           d="m 96.391265,172.31929 h 6.772295 c 3.75454,0.21142 11.13832,-0.67517 11.85752,4.03783 0.36116,2.45276 -1.05909,4.33345 -2.72381,5.16532 l -1.53098,0.76504 c 1.73707,1.79255 3.47414,3.58509 5.21121,5.37764 -1.54576,7e-5 -3.09152,1.5e-4 -4.63728,2.2e-4 l -4.7625,-5.05335 -6.746996,-0.1062 c 4e-5,1.71979 8.2e-5,3.43959 1.24e-4,5.15938 h -3.439583 z"
           id="path535"
           inkscape:label="R"
           sodipodi:nodetypes="cccscccccccc" /><path
           style="fill:#ffffff;stroke-width:0.264583"
           d="m 109.22356,179.70078 c 1.43748,-0.39181 2.25099,-1.19136 2.24054,-2.20209 -0.0207,-1.99875 -1.59161,-2.53357 -7.44197,-2.53357 h -4.191282 v 2.51354 2.51354 l 4.167192,-0.002 c 2.29195,-8e-4 4.64343,-0.13129 5.22552,-0.28995 z"
           id="path537"
           inkscape:label="R interior " /></g><g
         id="g644"
         inkscape:label="A"><path
           style="fill:#000000;stroke-width:0.264583"
           d="m 69.198089,187.2021 c 0.223028,-0.25466 1.206426,-1.77271 2.185331,-3.37344 0.978908,-1.60073 3.037568,-4.84518 4.574805,-7.20989 l 2.794973,-4.29948 1.873721,0.006 1.873721,0.006 3.307292,5.19585 c 1.81901,2.85771 3.989072,6.30802 4.822359,7.66735 l 1.51507,2.4715 h -2.081432 -2.081434 l -1.021136,-1.71517 -1.021136,-1.71517 -5.423958,5.3e-4 -5.423958,5.3e-4 -1.002715,1.71472 -1.002715,1.71472 c -0.791584,-0.097 -4.558742,0.31671 -3.888788,-0.46302 z"
           id="path531"
           inkscape:label="A" /><path
           style="fill:#ffffff;stroke-width:0.264583"
           d="m 84.128595,181.45743 c -0.245682,-0.64024 -3.452164,-5.69856 -3.61233,-5.69856 -0.160165,0 -3.366648,5.05832 -3.612329,5.69856 -0.125958,0.32824 0.421378,0.38686 3.612329,0.38686 3.190952,0 3.738288,-0.0586 3.61233,-0.38686 z"
           id="path533"
           inkscape:label="A interior " /></g><g
         id="g637"
         inkscape:label="B"><path
           style="fill:#000000;stroke-width:0.264583"
           d="m 46.120433,172.31929 h 6.963436 c 4.018549,0.30169 10.659671,-0.79943 11.557397,3.96875 0.03569,1.41291 -0.652024,2.60348 -1.852084,3.30165 1.54669,0.58565 2.920146,1.32875 2.954772,3.7245 0.03136,1.11143 -0.267259,1.84972 -0.864042,2.53685 -1.055091,1.23945 -2.321322,1.63967 -11.020417,1.74753 l -7.739062,0.0959 z"
           id="path525"
           inkscape:label="B" /><path
           style="fill:#ffffff;stroke-width:0.264583"
           d="m 60.255718,178.04521 c 0.951542,-0.62347 0.934841,-1.84333 -0.03393,-2.47868 -0.61808,-0.40535 -1.364385,-0.46912 -5.490104,-0.46912 h -4.77479 c 0.01947,3.50798 0.01676,0.0633 0.02248,3.50966 4.825728,0.0289 0.776601,0.0118 4.857716,0.009 3.946457,-0.003 4.864687,-0.2078 5.41864,-0.57077 z"
           id="path529"
           inkscape:label="B interna superior" /><path
           style="fill:#ffffff;stroke-width:0.264583"
           d="m 60.470964,184.74165 c 1.05524,-0.29306 1.524468,-0.88185 1.524468,-1.91292 -0.266591,-1.55356 -1.419828,-1.93303 -7.474479,-1.83254 l -4.696354,0.0779 v 3.94516 l 4.828646,-0.002 c 2.655755,-8e-4 5.273728,-0.12508 5.817719,-0.27616 z"
           id="path527"
           inkscape:label="B interna inferior" /></g><path
         style="fill:#000000;stroke-width:0.264583"
         d="m 119.69216,180.38425 c 0.24895,-8.51847 13.57117,-9.2203 20.06618,-5.87752 -0.63678,0.73201 -1.27356,1.46403 -1.91033,2.19605 -7.70982,-4.0325 -14.48511,-0.86084 -14.28629,4.05989 0.27734,5.84936 10.35825,4.58198 14.49114,2.63988 1.36893,2.00957 0.009,-0.006 1.37058,2.01367 -0.67582,0.44862 -3.26857,2.36887 -10.07219,2.41811 -3.70013,-0.0353 -9.552,-1.24656 -9.65909,-7.45008 z"
         id="path519"
         inkscape:label="C"
         sodipodi:nodetypes="cccccccc" /><g
         id="g685"><g
           id="g587"
           inkscape:label="A"><path
             style="fill:#000000;stroke-width:0.264583"
             d="m 28.525642,172.34367 c 1.322916,-0.001 2.645833,-0.003 3.968749,-0.004 3.274694,5.12879 6.805298,10.75379 9.617755,15.32515 h -4.1359 c -0.680758,-1.14345 -1.361514,-2.28689 -2.042271,-3.43034 -11.271438,0.22118 -0.02227,-0.0347 -11.244792,0.26767 -1.83282,3.20467 0.01761,0.008 -1.845511,3.1623 h -4.157543 c 3.384951,-5.16992 6.975119,-10.80484 9.839513,-15.32078 z m 2.336148,17.2807"
             id="path521"
             inkscape:label="A"
             sodipodi:nodetypes="ccccccccc" /><path
             style="fill:#ffffff;stroke-width:0.264583"
             d="m 34.214183,181.72364 c -3.710623,-6.23262 -0.0013,-0.0213 -3.755681,-6.23581 -3.897859,6.2384 -0.0041,0.04 -3.917235,6.24159 7.663365,-0.01 0.07807,-0.0245 7.672916,-0.006 z"
             id="path523"
             inkscape:label="A interior" /></g></g></g></g><g
     inkscape:label="Capa 1"
     inkscape:groupmode="layer"
     id="layer1"
     style="display:none"
     sodipodi:insensitive="true"
     transform="translate(-18.043692,-171.97787)"><g
       aria-label="ABARCAR "
       transform="matrix(0.44510322,0,0,0.29550584,-47.022227,-90.785476)"
       id="text864"
       style="font-weight:800;font-size:74.6667px;font-family:Nexa-Trial;-inkscape-font-specification:'Nexa-Trial, Ultra-Bold';white-space:pre;shape-inside:url(#rect866);display:inline"
       sodipodi:insensitive="true"><path
         d="m 146.18164,942.58521 h 11.20001 l 4.33066,-10.15467 h 26.95468 l 4.33067,10.15467 h 11.27467 l -23.37067,-52.26669 h -11.27467 z m 19.33868,-19.26401 9.70667,-22.77334 9.70667,22.77334 z"
         id="path1022" /><path
         d="m 210.395,942.58521 h 25.31201 c 12.17067,0 19.26401,-5.376 19.26401,-14.56 0,-5.67467 -3.43467,-10.67734 -8.28801,-12.61868 4.18134,-2.09066 6.64534,-6.048 6.64534,-11.2 0,-8.66134 -6.72,-13.88801 -17.62134,-13.88801 H 210.395 Z m 10.15467,-9.03467 V 919.9612 h 16.12801 c 5.00267,0 8.064,2.464 8.064,6.72001 0,4.256 -3.06133,6.86933 -8.13867,6.86933 z m 0,-22.17601 v -12.17067 h 15.38134 c 4.55467,0 7.24267,2.24 7.24267,6.12267 0,3.808 -2.61334,6.048 -7.24267,6.048 z"
         id="path1024" /><path
         d="m 257.36038,942.58521 h 11.20001 l 4.33067,-10.15467 h 26.95468 l 4.33066,10.15467 h 11.27468 L 292.0804,890.31852 h -11.27467 z m 19.33868,-19.26401 9.70667,-22.77334 9.70667,22.77334 z"
         id="path1026" /><path
         d="m 321.57375,942.58521 h 10.304 v -17.54667 h 9.03468 l 14.26134,17.54667 h 12.61867 l -15.45601,-18.29334 c 8.06401,-2.09067 12.76801,-8.13867 12.76801,-16.50134 0,-10.45334 -7.31734,-17.47201 -18.66668,-17.47201 h -24.86401 z m 10.22934,-26.43201 v -16.65067 h 13.96267 c 5.74934,0 9.10934,3.136 9.10934,8.36267 0,5.22667 -3.36,8.288 -9.10934,8.288 z"
         id="path1028" /><path
         d="m 399.97373,943.70521 c 7.91467,0 14.63467,-2.61333 20.01067,-7.91467 l -6.272,-6.86933 c -3.584,3.50933 -8.43734,5.45067 -13.58934,5.45067 -10.37867,0 -17.47201,-7.24267 -17.47201,-17.92001 0,-10.67734 7.09334,-17.92001 17.47201,-17.92001 5.07733,0 9.25867,1.71733 12.69334,5.152 l 6.64533,-6.34667 c -5.30133,-5.376 -11.94667,-8.13867 -19.63734,-8.13867 -16.20267,0 -27.62668,11.05067 -27.62668,27.25335 0,16.05334 11.20001,27.25334 27.77602,27.25334 z"
         id="path1030" /><path
         d="m 421.77643,942.58521 h 11.2 l 4.33067,-10.15467 h 26.95468 l 4.33067,10.15467 h 11.27467 l -23.37068,-52.26669 h -11.27467 z m 19.33867,-19.26401 9.70668,-22.77334 9.70667,22.77334 z"
         id="path1032" /><path
         d="m 485.9898,942.58521 h 10.304 v -17.54667 h 9.03467 l 14.26134,17.54667 h 12.61867 l -15.456,-18.29334 c 8.064,-2.09067 12.768,-8.13867 12.768,-16.50134 0,-10.45334 -7.31733,-17.47201 -18.66667,-17.47201 H 485.9898 Z m 10.22933,-26.43201 v -16.65067 h 13.96268 c 5.74933,0 9.10934,3.136 9.10934,8.36267 0,5.22667 -3.36001,8.288 -9.10934,8.288 z"
         id="path1034" /></g></g><rect
     style="display:none;fill:#000000;stroke-width:0.264583"
     id="rect1134"
     width="258.43613"
     height="207.2507"
     x="-38.618217"
     y="-143.87608" /><g
     inkscape:label="Capa 1 copia"
     inkscape:groupmode="layer"
     id="g800"
     style="display:inline"
     transform="translate(-18.043692,-171.97787)"><g
       aria-label="ABARCAR "
       transform="matrix(0.44510322,0,0,0.29550584,-47.022227,-90.785476)"
       id="g798"
       style="font-weight:800;font-size:74.6667px;font-family:Nexa-Trial;-inkscape-font-specification:'Nexa-Trial, Ultra-Bold';white-space:pre;shape-inside:url(#rect866);display:inline"><path
         d="m 146.18164,942.58521 h 11.20001 l 4.33066,-10.15467 h 26.95468 l 4.33067,10.15467 h 11.27467 l -23.37067,-52.26669 h -11.27467 z m 19.33868,-19.26401 9.70667,-22.77334 9.70667,22.77334 z"
         id="path784"
         style="fill:#ffffff" /><path
         d="m 210.395,942.58521 h 25.31201 c 12.17067,0 19.26401,-5.376 19.26401,-14.56 0,-5.67467 -3.43467,-10.67734 -8.28801,-12.61868 4.18134,-2.09066 6.64534,-6.048 6.64534,-11.2 0,-8.66134 -6.72,-13.88801 -17.62134,-13.88801 H 210.395 Z m 10.15467,-9.03467 V 919.9612 h 16.12801 c 5.00267,0 8.064,2.464 8.064,6.72001 0,4.256 -3.06133,6.86933 -8.13867,6.86933 z m 0,-22.17601 v -12.17067 h 15.38134 c 4.55467,0 7.24267,2.24 7.24267,6.12267 0,3.808 -2.61334,6.048 -7.24267,6.048 z"
         id="path786"
         style="fill:#ffffff" /><path
         d="m 257.36038,942.58521 h 11.20001 l 4.33067,-10.15467 h 26.95468 l 4.33066,10.15467 h 11.27468 L 292.0804,890.31852 h -11.27467 z m 19.33868,-19.26401 9.70667,-22.77334 9.70667,22.77334 z"
         id="path788"
         style="fill:#ffffff" /><path
         d="m 321.57375,942.58521 h 10.304 v -17.54667 h 9.03468 l 14.26134,17.54667 h 12.61867 l -15.45601,-18.29334 c 8.06401,-2.09067 12.76801,-8.13867 12.76801,-16.50134 0,-10.45334 -7.31734,-17.47201 -18.66668,-17.47201 h -24.86401 z m 10.22934,-26.43201 v -16.65067 h 13.96267 c 5.74934,0 9.10934,3.136 9.10934,8.36267 0,5.22667 -3.36,8.288 -9.10934,8.288 z"
         id="path790"
         style="fill:#ffffff" /><path
         d="m 399.97373,943.70521 c 7.91467,0 14.63467,-2.61333 20.01067,-7.91467 l -6.272,-6.86933 c -3.584,3.50933 -8.43734,5.45067 -13.58934,5.45067 -10.37867,0 -17.47201,-7.24267 -17.47201,-17.92001 0,-10.67734 7.09334,-17.92001 17.47201,-17.92001 5.07733,0 9.25867,1.71733 12.69334,5.152 l 6.64533,-6.34667 c -5.30133,-5.376 -11.94667,-8.13867 -19.63734,-8.13867 -16.20267,0 -27.62668,11.05067 -27.62668,27.25335 0,16.05334 11.20001,27.25334 27.77602,27.25334 z"
         id="path792"
         style="fill:#ffffff" /><path
         d="m 421.77643,942.58521 h 11.2 l 4.33067,-10.15467 h 26.95468 l 4.33067,10.15467 h 11.27467 l -23.37068,-52.26669 h -11.27467 z m 19.33867,-19.26401 9.70668,-22.77334 9.70667,22.77334 z"
         id="path794"
         style="fill:#ffffff" /><path
         d="m 485.9898,942.58521 h 10.304 v -17.54667 h 9.03467 l 14.26134,17.54667 h 12.61867 l -15.456,-18.29334 c 8.064,-2.09067 12.768,-8.13867 12.768,-16.50134 0,-10.45334 -7.31733,-17.47201 -18.66667,-17.47201 H 485.9898 Z m 10.22933,-26.43201 v -16.65067 h 13.96268 c 5.74933,0 9.10934,3.136 9.10934,8.36267 0,5.22667 -3.36001,8.288 -9.10934,8.288 z"
         id="path796"
         style="fill:#ffffff" /></g></g></svg>
